<?xml version="1.0" encoding="utf-8"?>
<svg class="auto-color" height="220" viewBox="0 0 527 220" width="527" xmlns="http://www.w3.org/2000/svg"><style>
.auto-color {
  fill: #000000; /* Light mode */
}
@media (prefers-color-scheme: dark) {
  .auto-color {
    fill: #ffffff; /* Dark mode */
  }
}
</style>
<path class="auto-color" d="M40 138.863L84.8292 138.863C96.8739 137.605 106.591 135.277 110.637 121.766C113.068 113.645 112.521 100.023 109.425 92.1171C104.878 80.5093 95.9244 79.3562 85.3452 78.1369L40 78.1811L40 50.0441L92.57 50C116.453 52.0965 131.765 70.1427 135.098 95.0136C139.635 128.833 127.321 163.552 92.054 167H40V138.863Z"/>
<path class="auto-color" d="M340.5 50L300 166.647H260L220 50H250.5L280 140.5L310 50H340.5Z"/>
<path class="auto-color" d="M372.95 49.962C392.486 48.1607 414.277 51.0325 434.044 49.8642C448.269 51.1508 458.289 61.2688 460.075 75.2982C459.823 95.7194 460.358 116.161 460.034 136.582C459.771 153.123 450.204 164.502 433.571 166.684C413.839 165.495 392.373 168.223 372.847 166.643C357.264 165.382 347.172 152.732 346.302 137.607C347.218 118.508 345.149 98.3904 346.302 79.4153C347.274 63.384 356.327 51.4957 372.95 49.9672V49.962ZM371.921 63.8524C365.421 65.1338 361.103 69.812 360.249 76.3686L360.202 139.145C361.129 146.489 365.936 151.77 373.326 152.784H434.091C441.069 151.61 445.505 146.52 446.699 139.66V76.3223C445.758 69.5804 440.879 64.6089 434.091 63.7134L371.921 63.8524Z"/>
<path class="auto-color" d="M167.732 50H142V166.311H167.732V50Z"/>
<path class="auto-color" d="M142 50V76H220L210.5 50H142Z"/>
<path class="auto-color" d="M142 96V120H194V96H142Z"/>
<path class="auto-color" d="M142 140V166H220V140H142Z"/>
<path class="auto-color" d="M417.864 101.303L383.65 135.795C376.512 140.612 369.26 134.158 373.362 126.537C384.617 115.044 396.377 104.031 407.056 92.0396H394.447C393.819 92.0396 391.627 89.8318 391.179 89.1319C388.529 85.0147 390.577 80.249 395.06 78.7514L426.381 78.6382C429.031 78.8029 430.56 81.1908 431.239 83.5582L431.157 113.305C429.634 118.045 424.163 120.031 420.18 116.753C419.433 116.141 417.874 113.66 417.874 112.883V101.303H417.864Z"/>
</svg>